# xmcd CD database file
#
# Track frame offsets:
#	150
#	17266
#	38626
#	65804
#	79391
#	87512
#	108487
#	128804
#	143303
#	152973
#	175798
#	191106
#	210915
#	226826
#
# Disc length: 3108 seconds
#
# Revision: 0
# Processed by: cddbd v1.5.1PL2 Copyright (c) Steve Scherf et al.
# Submitted via: CDex 1.51
#
DISCID=b10c220e
DTITLE=Fat Harry and the Fuzzy Licks - Pentatonic Pleasures
DYEAR=2005
DGENRE=Blues
TTITLE0=Driving Machine
TTITLE1=Why don't you go back to your mother?
TTITLE2=Loser
TTITLE3=Tippin' at Taylors
TTITLE4=Dos enchiladas
TTITLE5=Kick her butt twice
TTITLE6=Gettin' out of your life
TTITLE7=You didn't think about that
TTITLE8=Dueces wild at Ohio and State
TTITLE9=Break of day
TTITLE10=Harry's Rock
TTITLE11=Downfall of a lonely man
TTITLE12=Standing in the rain
TTITLE13=Pentatonic pleasures
EXTD=YEAR: 2005
EXTT0=
EXTT1=
EXTT2=
EXTT3=
EXTT4=
EXTT5=
EXTT6=
EXTT7=
EXTT8=
EXTT9=
EXTT10=
EXTT11=
EXTT12=
EXTT13=
PLAYORDER=
